HIERARCHY
ROOT locator2
{
  OFFSET 53.6172 30.1899 0.816905
  CHANNELS 6 Xposition Yposition Zposition Zrotation Xrotation Yrotation
  JOINT koshi
  {
    OFFSET 0 0 0
    CHANNELS 6 Xposition Yposition Zposition Zrotation Xrotation Yrotation
    JOINT sippo01
    {
      OFFSET 0 42.8363 -0.548134
      CHANNELS 6 Xposition Yposition Zposition Zrotation Xrotation Yrotation
      JOINT sippo02
      {
        OFFSET 0 44.0461 -3.28882
        CHANNELS 6 Xposition Yposition Zposition Zrotation Xrotation Yrotation
        JOINT sippo03
        {
          OFFSET 0 34.1929 -2.46662
          CHANNELS 6 Xposition Yposition Zposition Zrotation Xrotation Yrotation
          JOINT sippo04
          {
            OFFSET 0 30.0959 -1.75404
            CHANNELS 6 Xposition Yposition Zposition Zrotation Xrotation Yrotation
            JOINT sippo05
            {
              OFFSET 0 28.3637 -1.75404
              CHANNELS 6 Xposition Yposition Zposition Zrotation Xrotation Yrotation
              JOINT sippo06
              {
                OFFSET 0 31.6071 -3.2043
                CHANNELS 6 Xposition Yposition Zposition Zrotation Xrotation Yrotation
                End Site
                {
                  OFFSET 0 0 0
                }
              }
            }
          }
        }
      }
    }
    JOINT R_momo
    {
      OFFSET -27.891 13.5892 3.92723
      CHANNELS 6 Xposition Yposition Zposition Zrotation Xrotation Yrotation
      JOINT R_hiza
      {
        OFFSET 0 28.01 1.8232
        CHANNELS 6 Xposition Yposition Zposition Zrotation Xrotation Yrotation
        JOINT R_ashi
        {
          OFFSET 0 24.3992 -2.49174
          CHANNELS 6 Xposition Yposition Zposition Zrotation Xrotation Yrotation
          End Site
          {
            OFFSET 0 0 0
          }
        }
      }
    }
    JOINT L_momo
    {
      OFFSET 27.891 13.5892 3.92714
      CHANNELS 6 Xposition Yposition Zposition Zrotation Xrotation Yrotation
      JOINT L_hiza
      {
        OFFSET 0 28.0098 1.82319
        CHANNELS 6 Xposition Yposition Zposition Zrotation Xrotation Yrotation
        JOINT L_ashi
        {
          OFFSET 0 24.3992 -2.49171
          CHANNELS 6 Xposition Yposition Zposition Zrotation Xrotation Yrotation
          End Site
          {
            OFFSET 0 0 0
          }
        }
      }
    }
  }
  JOINT hara
  {
    OFFSET 0 2.15392 0
    CHANNELS 6 Xposition Yposition Zposition Zrotation Xrotation Yrotation
    JOINT mune
    {
      OFFSET 0 62.0609 0.472494
      CHANNELS 6 Xposition Yposition Zposition Zrotation Xrotation Yrotation
      JOINT R_kata
      {
        OFFSET 22.6695 9.65301 -5.3622
        CHANNELS 6 Xposition Yposition Zposition Zrotation Xrotation Yrotation
        JOINT R_hiji
        {
          OFFSET 0 25.813 1.69098
          CHANNELS 6 Xposition Yposition Zposition Zrotation Xrotation Yrotation
          JOINT R_te
          {
            OFFSET 0 28.5636 -0.966307
            CHANNELS 6 Xposition Yposition Zposition Zrotation Xrotation Yrotation
            End Site
            {
              OFFSET 0 0 0
            }
          }
        }
      }
      JOINT L_kata
      {
        OFFSET -22.6695 9.65298 -5.3622
        CHANNELS 6 Xposition Yposition Zposition Zrotation Xrotation Yrotation
        JOINT L_hiji
        {
          OFFSET 0 25.813 1.69102
          CHANNELS 6 Xposition Yposition Zposition Zrotation Xrotation Yrotation
          JOINT L_te
          {
            OFFSET 0 28.5636 -0.966295
            CHANNELS 6 Xposition Yposition Zposition Zrotation Xrotation Yrotation
            End Site
            {
              OFFSET 0 0 0
            }
          }
        }
      }
      JOINT kubi
      {
        OFFSET 0 23.1438 -0.944988
        CHANNELS 6 Xposition Yposition Zposition Zrotation Xrotation Yrotation
        JOINT atama
        {
          OFFSET 0 20.8625 4.12737
          CHANNELS 6 Xposition Yposition Zposition Zrotation Xrotation Yrotation
          JOINT ago
          {
            OFFSET 0 7.552 -7.58201
            CHANNELS 6 Xposition Yposition Zposition Zrotation Xrotation Yrotation
            End Site
            {
              OFFSET 0 0 0
            }
          }
        }
      }
    }
  }
}
MOTION
Frames:	8
Frame Time:	0.0333333
442.57 29.8938 301.673 -90 -3.50835e-015 -90 0 0 0 95.9265 0.421275 0.39873 -9.15527e-005 42.8363 -0.548138 -0.458157 -12.4439 5.28392 2.08717e-008 44.0461 -3.28881 0.0561605 17.5146 -2.84766 1.39987e-006 34.1929 -2.46661 -0.227048 1.08227 -2.89756 -2.88925e-005 30.0959 -1.75404 0.283057 11.4883 -4.22177 -5.8475e-005 28.3637 -1.75405 3.71426 3.09145 5.23975 4.50903e-006 31.6072 -3.20431 2.40387 0.981141 -11.5603 -27.8909 13.5892 3.92723 108.95 -23.7044 -39.3266 -4.90163e-006 28.01 1.8232 168.318 -79.5815 150.576 -2.62841e-005 24.3992 -2.49174 -162.055 50.8627 -170.634 27.8909 13.5891 3.92714 -83.6442 -29.743 72.5992 -2.69753e-006 28.0099 1.82321 -1.97436 -52.088 10.2737 -2.81426e-005 24.3992 -2.4917 140.858 65.2975 165.068 0 2.15393 0 -86.5272 0.155029 -0.119726 6.10352e-005 62.0609 0.472504 -9.98525e-006 9.99478e-006 1.01921e-005 22.6695 9.65303 -5.36219 -155.328 7.29294 26.2258 -5.18722e-006 25.813 1.69099 176.166 -87.5683 173.868 -4.1104e-005 28.5636 -0.966365 62.1948 -19.8353 -84.8943 -22.6694 9.65302 -5.36219 134.744 -12.3948 -41.6517 2.9289e-006 25.813 1.69101 -179.564 -69.8874 -175.415 -3.36969e-005 28.5636 -0.966264 -56.5419 30.6814 122.528 -6.10352e-005 23.1438 -0.944984 -4.87699 -3.47389 5.5955 9.25214e-005 20.8625 4.12736 -2.83198 -4.64046 1.48529 5.98107e-005 7.55205 -7.58199 -4.81266e-006 5.79822 1.05569e-006 
442.642 29.9041 302.683 -90 -3.50835e-015 -90 0 0 0 96.2209 0.862115 0.404049 -9.15527e-005 42.8363 -0.548138 -0.327946 -12.8353 5.08672 5.25313e-008 44.0461 -3.28881 0.611574 16.6144 -3.17884 1.55987e-006 34.1929 -2.46661 0.445399 1.08228 -2.76183 -2.84764e-005 30.0959 -1.75404 0.905876 11.2608 -3.89253 -5.77582e-005 28.3637 -1.75405 4.3502 3.18715 5.13913 5.47734e-006 31.6072 -3.20431 2.71606 0.262851 -11.031 -27.8909 13.5892 3.92723 110.248 -25.63 -37.7901 -4.89675e-006 28.01 1.8232 168.658 -79.547 152.647 -2.63977e-005 24.3992 -2.49174 -163.598 46.8963 -169.589 27.8909 13.5891 3.92714 -82.2511 -30.096 73.3621 -2.79825e-006 28.0099 1.82321 -1.85173 -50.0057 10.1748 -2.81463e-005 24.3992 -2.4917 140.225 65.8604 165.226 -5.68434e-014 2.15393 3.55271e-015 -87.4296 -0.203439 -0.309869 6.10352e-005 62.0609 0.472504 -9.98525e-006 9.99478e-006 1.0192e-005 22.6695 9.65303 -5.36219 -155.805 8.20079 25.1131 -5.15009e-006 25.813 1.69099 177.706 -85.9352 175.192 -4.09401e-005 28.5636 -0.966365 63.2384 -20.4537 -85.2167 -22.6694 9.65302 -5.36219 137.383 -9.67594 -41.292 2.63087e-006 25.813 1.69101 -179.551 -70.6038 -175.821 -3.33193e-005 28.5636 -0.966263 -54.5015 28.7238 119.091 -6.10352e-005 23.1438 -0.944984 -5.84365 -3.22834 4.30068 9.25696e-005 20.8625 4.12736 -2.52902 -4.54125 0.496609 5.99823e-005 7.55205 -7.58199 -6.73782e-007 6.36707 1.02297e-005 
442.712 29.9141 303.673 -90 -3.50835e-015 -90 0 0 0 96.4771 1.33098 0.407148 -9.15527e-005 42.8363 -0.548138 -0.200328 -13.218 4.89567 8.44026e-008 44.0461 -3.28881 1.15082 15.7312 -3.48578 1.72458e-006 34.1929 -2.46661 1.10256 1.08198 -2.62918 -2.80614e-005 30.0959 -1.75404 1.51631 11.0364 -3.56475 -5.70408e-005 28.3637 -1.75405 4.97731 3.28107 5.03788 6.43441e-006 31.6072 -3.20431 3.02294 -0.441351 -10.5041 -27.8909 13.5892 3.92723 111.523 -27.533 -36.2312 -4.90847e-006 28.01 1.8232 168.989 -79.5129 153.767 -2.65712e-005 24.3992 -2.49174 -164.232 45.2119 -169.702 27.8909 13.5891 3.92714 -80.8426 -30.3849 74.1265 -2.89252e-006 28.0099 1.82321 -1.73121 -47.5961 10.082 -2.81583e-005 24.3992 -2.4917 139.57 66.4113 165.524 0 2.15393 0 -87.9202 -0.828598 -0.695274 6.10352e-005 62.0609 0.472504 3.25815e-008 9.99478e-006 1.74198e-007 22.6695 9.65303 -5.36219 -156.267 9.0965 24.0372 -5.11578e-006 25.813 1.69099 178.655 -83.0679 175.931 -4.0735e-005 28.5636 -0.966365 63.7089 -20.2774 -86.5533 -22.6694 9.65302 -5.36219 139.414 -6.73351 -41.2448 2.3086e-006 25.813 1.69101 -179.538 -71.3064 -176.219 -3.29721e-005 28.5636 -0.966263 -52.6704 26.6864 114.842 -6.10352e-005 23.1438 -0.944984 -6.686 -2.8337 2.81748 9.26005e-005 20.8625 4.12736 -2.03692 -4.25295 -0.231371 6.01324e-005 7.55205 -7.58199 -5.92367e-007 5.91358 1.0221e-005 
442.783 29.9242 304.673 -90 -3.50835e-015 -90 0 0 0 96.7779 1.52567 0.401964 -9.15527e-005 42.8363 -0.548138 -0.0709348 -13.6048 4.70431 1.17531e-007 44.0461 -3.28881 1.69039 14.839 -3.77809 1.89801e-006 34.1929 -2.46661 1.76737 1.08177 -2.49495 -2.76359e-005 30.0959 -1.75404 2.13159 10.8088 -3.22893 -5.63062e-005 28.3637 -1.75405 5.60383 1.99327 5.06938 7.40125e-006 31.6072 -3.20431 3.33326 -1.15282 -9.9644 -27.8909 13.5892 3.92723 112.815 -29.4679 -35.9361 -4.8233e-006 28.01 1.8232 169.322 -79.478 154.9 -2.6708e-005 24.3992 -2.49174 -163.894 43.3751 -170.505 27.8909 13.5891 3.92714 -79.4536 -30.6384 74.8156 -2.98034e-006 28.0099 1.82321 -1.61799 -44.9759 9.86347 -2.82175e-005 24.3992 -2.4917 138.76 67.1206 166.005 -5.68434e-014 2.15393 3.55271e-015 -89.0446 -1.63494 -0.948301 6.10352e-005 62.0609 0.472504 -9.9852e-006 9.99478e-006 1.0192e-005 22.6695 9.65303 -5.36219 -156.731 10.0069 22.9653 -5.08319e-006 25.813 1.69099 179.049 -80.172 175.855 -4.05221e-005 28.5636 -0.966365 64.1812 -20.0956 -87.9049 -22.6694 9.65302 -5.36219 141.259 -4.3179 -42.0042 2.01066e-006 25.813 1.69101 -179.524 -72.015 -176.883 -3.26596e-005 28.5636 -0.966263 -51.1659 24.8381 111.124 -6.10352e-005 23.1438 -0.944984 -7.5358 -2.35756 1.21738 9.26257e-005 20.8625 4.12736 -1.4407 -3.96112 -0.628665 6.02563e-005 7.55205 -7.58199 -4.59262e-007 5.45217 7.36339e-007 
442.855 29.9345 305.683 -90 -3.50835e-015 -90 0 0 0 97.079 1.73418 0.39508 -9.15527e-005 42.8363 -0.548138 0.0607434 -13.9971 4.51205 1.52039e-007 44.0461 -3.28881 2.2325 13.9355 -4.0562 2.08014e-006 34.1929 -2.46661 2.43868 1.08128 -2.35947 -2.72019e-005 30.0959 -1.75404 2.7525 10.5777 -2.8845 -5.55594e-005 28.3637 -1.75405 6.23759 0.695602 5.12996 8.37269e-006 31.6072 -3.20431 3.64695 -1.8697 -9.41205 -27.8909 13.5892 3.92723 114.112 -31.4238 -35.5954 -4.74367e-006 28.01 1.8232 168.75 -80.2918 155.113 -2.68577e-005 24.3992 -2.49174 -163.554 41.5333 -169.634 27.8909 13.5891 3.92714 -78.1697 -30.5544 75.4497 -3.03454e-006 28.0099 1.82321 -1.55836 -42.7266 9.59632 -2.82874e-005 24.3992 -2.4917 138.143 67.7144 166.383 0 2.15393 0 -90.3988 -1.5065 -1.4176 6.10352e-005 62.0609 0.472504 -9.98528e-006 9.99478e-006 1.0192e-005 22.6695 9.65303 -5.36219 -156.865 10.1949 22.141 -5.10028e-006 25.813 1.69099 179.265 -77.2226 175.595 -4.03157e-005 28.5636 -0.966365 64.6328 -19.8966 -89.2992 -22.6694 9.65302 -5.36219 143.023 -1.74825 -42.9324 1.68334e-006 25.813 1.69101 -179.471 -73.9618 -177.514 -3.2274e-005 28.5636 -0.966262 -49.7686 22.8962 107.468 -6.10352e-005 23.1438 -0.944984 -8.39361 -1.79989 -0.499368 9.26443e-005 20.8625 4.12736 -0.638773 -3.36953 -0.791307 6.0355e-005 7.55205 -7.58199 -9.63731e-006 4.98628 1.35915e-006 
442.925 29.9445 306.681 -90 -3.50835e-015 -90 0 0 0 97.3671 1.94872 0.386598 -9.15527e-005 42.8363 -0.548138 0.190124 -14.3806 4.32587 1.86667e-007 44.0461 -3.28881 2.75992 13.0498 -4.31176 2.264e-006 34.1929 -2.46661 3.09584 1.08073 -2.22674 -2.67754e-005 30.0959 -1.75404 3.36027 10.3503 -2.54208 -5.48294e-005 28.3637 -1.75405 6.86188 -0.573931 5.21701 9.30159e-006 31.6072 -3.20431 3.95565 -2.57244 -8.86252 -27.8909 13.5892 3.92723 113.489 -32.3583 -36.9392 -4.53586e-006 28.01 1.8232 168.085 -81.0894 154.456 -2.68902e-005 24.3992 -2.49174 -163.005 40.582 -169.09 27.8909 13.5891 3.92714 -78.5274 -31.0173 75.8436 -3.06301e-006 28.0099 1.82321 -1.58342 -42.548 9.58298 -2.82282e-005 24.3992 -2.4917 137.503 68.2931 166.787 0 2.15393 -3.55271e-015 -91.2693 -2.15203 -1.7853 6.10352e-005 62.0609 0.472504 -9.98522e-006 9.99478e-006 1.87033e-007 22.6695 9.65303 -5.36219 -156.995 10.3786 22.2544 -5.07771e-006 25.813 1.69099 179.479 -71.8909 175.347 -4.01506e-005 28.5636 -0.966366 62.9047 -18.1528 -93.0767 -22.6694 9.65302 -5.36219 144.661 0.885769 -43.9962 1.33876e-006 25.813 1.69101 -179.407 -75.8702 -178.12 -3.19357e-005 28.5636 -0.966262 -48.5154 20.9191 103.411 -6.10352e-005 23.1438 -0.944984 -9.23534 -1.33132 -2.30211 9.2655e-005 20.8625 4.12736 0.146127 -2.69241 -0.746952 6.04402e-005 7.55205 -7.58199 -3.45052e-007 4.53108 1.01984e-005 
442.996 29.985 307.689 -90 -3.50835e-015 -90 0 0 0 97.6538 2.17786 0.376236 -9.15527e-005 42.8363 -0.548138 0.32106 -14.7682 4.1394 2.22457e-007 44.0461 -3.28881 3.28973 12.1544 -4.55309 2.45438e-006 34.1929 -2.46661 3.75956 1.07992 -2.09281 -2.63454e-005 30.0959 -1.75404 3.97371 10.1195 -2.19112 -5.40989e-005 28.3637 -1.75405 7.49603 -1.8526 5.33319 1.01994e-005 31.6072 -3.20431 4.26841 -3.2819 -8.29957 -27.8909 13.5892 3.92723 111.931 -33.8392 -38.4926 -4.24762e-006 28.01 1.8232 167.282 -81.8915 153.662 -2.69324e-005 24.3992 -2.49174 -162.529 39.6322 -168.738 27.8909 13.5891 3.92714 -79.5043 -30.1013 75.9284 -2.95062e-006 28.0099 1.82321 -1.73569 -44.5986 10.3769 -2.79422e-005 24.3992 -2.4917 136.817 68.8759 167.001 -5.68434e-014 2.15393 0 -92.5001 -2.3749 -2.16504 6.10352e-005 62.0609 0.472504 3.25717e-008 9.99478e-006 1.74151e-007 22.6695 9.65303 -5.36219 -154.954 10.089 21.7839 -5.23861e-006 25.813 1.69099 179.594 -66.5063 175.555 -3.97388e-005 28.5636 -0.966366 60.7076 -15.0699 -98.0838 -22.6694 9.65302 -5.36219 145.529 3.04808 -45.572 1.03543e-006 25.813 1.69101 -179.32 -77.7972 -178.711 -3.1699e-005 28.5636 -0.966262 -47.5148 19.2661 99.5212 -6.10352e-005 23.1438 -0.944984 -9.97903 -0.704506 -4.20448 9.2649e-005 20.8625 4.12736 1.13764 -1.9099 -0.6038 6.0502e-005 7.55205 -7.58199 4.31613e-007 4.06798 4.11187e-007 
443.068 30.026 308.707 -90 -3.50835e-015 -90 0 0 0 97.9354 2.41906 0.363984 -9.15527e-005 42.8363 -0.548138 0.453874 -15.1583 3.95369 2.59372e-007 44.0461 -3.28881 3.82113 11.2516 -4.77919 2.65011e-006 34.1929 -2.46661 4.43201 1.07902 -1.95707 -2.59137e-005 30.0959 -1.75404 4.59196 9.88583 -1.83166 -5.33743e-005 28.3637 -1.75405 8.14117 -3.1398 5.4795 1.10475e-005 31.6072 -3.20431 4.58489 -3.99672 -7.72387 -27.8909 13.5892 3.92723 110.211 -35.2664 -40.1653 -3.95517e-006 28.01 1.8232 166.282 -82.7049 152.133 -2.7016e-005 24.3992 -2.49174 -162.075 38.6106 -168.338 27.8909 13.5891 3.92714 -80.8544 -29.2723 75.2029 -2.81599e-006 28.0099 1.82321 -1.97544 -47.2451 11.5756 -2.76671e-005 24.3992 -2.4917 135.92 69.617 167.212 -5.68434e-014 2.15393 3.55271e-015 -93.3937 -2.81351 -2.53079 6.10352e-005 62.0609 0.472504 3.26291e-008 9.99478e-006 2.38977e-007 22.6695 9.65303 -5.36219 -152.854 9.82857 22.6723 -5.3309e-006 25.813 1.69099 179.753 -61.0658 175.799 -3.94478e-005 28.5636 -0.966366 59.3476 -9.8639 -101.979 -22.6694 9.65302 -5.36219 146.352 5.26433 -47.2083 7.18045e-007 25.813 1.69101 -179.159 -80.1932 -179.228 -3.14987e-005 28.5636 -0.966261 -47.329 17.3262 95.883 -6.10352e-005 23.1438 -0.944984 -10.729 0.00506468 -6.09351 9.2638e-005 20.8625 4.12736 2.23576 -1.21795 -0.253818 6.05342e-005 7.55205 -7.58199 1.71576e-005 3.60207 9.09747e-006 
